<svg width="149" height="149" viewBox="0 0 149 149" fill="none" xmlns="http://www.w3.org/2000/svg">
<mask id="mask0_756_48" style="mask-type:luminance" maskUnits="userSpaceOnUse" x="38" y="0" width="72" height="28">
<path d="M38.064 0.193359H109.977V27.6395H38.064V0.193359Z" fill="white"/>
</mask>
<g mask="url(#mask0_756_48)">
<path fill-rule="evenodd" clip-rule="evenodd" d="M103.379 27.5748C105.474 27.5748 107.431 26.7227 108.599 25.2882C109.777 23.8609 110.012 22.0507 109.23 20.4418C109.23 20.4418 105.43 12.6096 102.943 7.47196C100.707 2.87004 95.3021 -0.153564 89.2854 -0.153564C81.25 -0.153564 66.6752 -0.153564 58.6399 -0.153564C52.6232 -0.153564 47.2183 2.87004 44.9841 7.47196C42.495 12.6096 38.6974 20.4418 38.6974 20.4418C37.9155 22.0507 38.1508 23.8609 39.3267 25.2882C40.4938 26.7227 42.4537 27.5748 44.5464 27.5748H103.379Z" fill="#1E1E1E"/>
</g>
<path fill-rule="evenodd" clip-rule="evenodd" d="M111.785 17.1775H36.1416C32.6617 17.1775 29.8374 19.5072 29.8374 22.3762C29.8374 25.2471 32.6617 27.575 36.1416 27.575H111.785C115.265 27.575 118.089 25.2471 118.089 22.3762C118.089 19.5072 115.265 17.1775 111.785 17.1775Z" fill="#1E1E1E"/>
<path fill-rule="evenodd" clip-rule="evenodd" d="M46.6481 73.161C40.638 74.173 35.0654 76.6196 30.6623 80.2454C24.7523 85.126 21.4336 91.7322 21.4336 98.6297C21.4336 111.718 21.4336 127.773 21.4336 136.755C21.4336 143.453 28.0143 148.888 36.1412 148.888H46.6481V73.161ZM88.6716 72.6343V148.888H59.2543V72.6343H88.6716ZM101.28 73.161V148.888H111.785C119.912 148.888 126.495 143.453 126.495 136.755V98.6297C126.495 91.7322 123.173 85.126 117.266 80.2454C112.86 76.6196 107.288 74.173 101.28 73.161Z" fill="#1E1E1E"/>
<path fill-rule="evenodd" clip-rule="evenodd" d="M108.482 34.5083H39.4448L40.538 45.3282C41.899 58.805 55.5569 69.1683 71.9457 69.1683C73.2914 69.1683 74.635 69.1683 75.9807 69.1683C92.3695 69.1683 106.027 58.805 107.391 45.3282L108.482 34.5083Z" fill="#1E1E1E"/>
<mask id="mask1_756_48" style="mask-type:luminance" maskUnits="userSpaceOnUse" x="0" y="51" width="148" height="43">
<path d="M0.411621 51.5696H147.886V93.4471H0.411621V51.5696Z" fill="white"/>
</mask>
<g mask="url(#mask1_756_48)">
<path fill-rule="evenodd" clip-rule="evenodd" d="M33.4284 51.8374H15.1299C7.0031 51.8374 0.422363 57.2735 0.422363 63.9696V81.2987C0.422363 87.5598 6.16255 92.71 13.5425 93.3608C14.8773 86.5819 18.76 80.2669 24.7202 75.345C30.0226 70.9714 36.6708 67.955 43.857 66.569C38.9573 62.5693 35.3011 57.5233 33.4284 51.8374ZM114.501 51.8374C112.626 57.5233 108.97 62.5693 104.07 66.569C111.256 67.955 117.904 70.9714 123.206 75.345C129.168 80.2669 133.05 86.5819 134.386 93.3608C141.767 92.71 147.507 87.5598 147.507 81.2987V63.9696C147.507 57.2735 140.926 51.8374 132.797 51.8374H114.501Z" fill="#1E1E1E"/>
</g>
</svg>
